<?xml version="1.0" encoding="UTF-8"?><svg id="Camada_1" xmlns="http://www.w3.org/2000/svg" viewBox="0 0 3206.02 712.52"><defs><style>.cls-1{fill-rule:evenodd;}</style></defs><path class="cls-1" d="M1834,163.4c-1.76-3.31-1.87-9.69-3.29-13.51-4.21-11.39-8.19-22.9-12.89-33.36-1.7-3.78-5.05-6.44-7.33-9.29-1.88-2.35-3.38-6.26-5.31-8.44-2.51-2.86-5.21-4.66-7.58-7.6-1.44-1.78-2.39-4.99-3.79-6.76-1.12-1.41-2.69-1.54-3.54-3.38-3.06-6.67-6.36-12.94-9.1-20.27-.81-2.17-.89-3.87-1.52-6.33-1.93-7.65-4.97-16.82-7.83-23.22-3.53-7.88-7.99-14.72-11.62-22.8-1.26-2.81-4.04-4.52-4.55-8.44h-2.27c-.09.88-.06.81-.25,1.27-1.97,2.68-7.18-.78-10.36.42-6.06,2.3-11.73,2.62-16.68,6.33-1.09.28-2.19.56-3.29.84-7.51,4.73-15.53,9.66-22.74,14.78-.84.28-1.68.56-2.53.84-1.09.89-2.98,2.5-4.04,3.38-.84.28-1.68.56-2.53.84-3.65,3.03-7.48,5.54-11.37,8.44-1.23.92-2.94,3.07-4.3,3.8-.74.4-1.93-.34-2.27-.42-.65-.16-4.02.84-5.05,1.27-6.89,2.84-17.63,2.7-24.51,0-7.08-.14-14.15-.28-21.23-.42-1.89,4.64-4.7,4.49-8.09,6.76-4.15,2.78-8.75,7.21-12.64,10.98-1.99,1.93-3.6,5.64-6.57,5.91-.22-.43-.48-.72-.76-.91-.87-4.81-1.13-9.93-1.73-14.61-.38-2.98.47-7.76-1.51-9.47-2.56-2.54-9.21-.5-14.44-.58-9.47-.14-22.18,2.2-30.92,1.77-4.56-.22-8.34,1.49-10.71-.67-4.07.58-8.14,1.16-12.2,1.74,2.79,2.78,8.13,3.8,10.45,6.87,4,5.3,3.14,15.89,2.2,21.7-1.93,11.97,2.62,25.25.87,36.87.32,2.01.64,4.02.96,6.03-.97,6.5.53,14.11-.44,20.76.25,1.58.5,3.16.75,4.74-3.1,19.38,1.72,40.58.75,60.44h-.38v3.38h.16c-.16,1.94-.39,3.87-.69,5.79.3,1.87.59,3.73.89,5.6-.63,3.96-.26,9.83-.93,13.78.3,1.87.59,3.73.89,5.6-.97,6.47.63,14.58-.37,21.19.23,1.44.46,2.87.68,4.31-1.48,8.76,1.44,18.52.04,27.74-2.76,18.29,1.99,38.01-1.07,56.08.3,1.87.59,3.73.89,5.6-.6,4.01-.33,9.44-1,13.35.25,1.58.5,3.16.75,4.74-1.27,8.16.45,18.03-.84,26.1.32,2.01.64,4.02.96,6.03-5.27,28.93,1.3,61.66-3.66,90.8-.96,5.63,1.57,10.21.63,15.76-3.62,21.47.06,45.06-3.83,66.16-.99,5.34,1.46,9.72.5,14.9-2.69,14.52-1.2,30.7-4.14,44.63.34,3.47.69,6.95,1.03,10.42-.92,5.41-.6,12.13-1.6,17.4.18,2.47.37,4.94.55,7.41-.97,5.49-.53,12.49-1.53,17.83.27,1.72.55,3.44.82,5.17-.96,4.29-4.43,9.31-4.73,13.45,2.58-.82,4.36-3.25,4.81-5.09,3.48-.96,7.71-1.25,11.78-1.3-.08.27-.17.54-.24.8h-.76v3.38h.76c2.6,6.19,14.81,12.66,21.99,9.71,3.77-1.55,8.45-2.74,12.38-4.22h3.03c2.08-.8,4.43-.76,6.82-1.69,3.62-1.41,8.55-4.01,13.65-2.11,4.55-.14,9.1-.28,13.65-.42,7.02,3.78,17.37.76,24.77-2.11,1.6-.14,3.2-.28,4.8-.42,4.29-1.63,9.8-1.69,14.91-1.69h11.12c4.74,2.12,11.33,2.11,17.69,2.11h8.34c3.58,1.63,8.78,2.76,12.64,4.22h15.16c2.73.99,6.22-.25,9.1.84,3.61,1.37,8.13,2.05,11.62,3.38,2.27.14,4.55.28,6.82.42,1.73.64,3.8,1.43,5.56,2.11,1.09.14,2.19.28,3.29.42.08.42.17.84.25,1.27h7.33c.08-.42.17-.84.25-1.27,1.01-.14,2.02-.28,3.03-.42.94-.42,1.91-1.7,2.78-2.11h2.53c2.49-.96,4.98-1.22,7.58-2.53,5.76-2.91,11.94-7.49,17.44-10.56,1.26-.14,2.53-.28,3.79-.42,4.29-2.41,9.32-5.93,13.65-8.44,2.45-1.42,4.07-1.23,6.57-2.53,2.52-1.31,3.58-4.54,5.56-6.33,1.71-1.55,3.09-2.39,4.55-4.22,1.24-1.55,1.99-5.55,3.54-6.33v-5.91c-.52-.16-.49-.1-.76-.42-1.76-3.31-1.87-9.69-3.29-13.51-4.21-11.39-8.19-22.9-12.89-33.36-1.7-3.78-5.05-6.44-7.33-9.29-1.88-2.35-3.38-6.26-5.31-8.44-2.51-2.86-5.21-4.66-7.58-7.6-1.44-1.78-2.39-4.99-3.79-6.76-1.12-1.41-2.69-1.54-3.54-3.38-3.06-6.67-6.36-12.94-9.1-20.27-.81-2.17-.89-3.87-1.52-6.33-1.93-7.65-4.97-16.82-7.83-23.22-3.53-7.88-7.99-14.72-11.62-22.8-1.26-2.81-4.04-4.52-4.55-8.44h-2.27c-.09.88-.06.81-.25,1.27-1.97,2.68-7.18-.78-10.36.42-6.06,2.3-11.73,2.62-16.68,6.33-1.09.28-2.19.56-3.29.84-7.51,4.73-15.53,9.66-22.74,14.78-.84.28-1.68.56-2.53.84-1.09.89-2.98,2.5-4.04,3.38-.84.28-1.68.56-2.53.84-3.65,3.03-7.48,5.54-11.37,8.44-1.23.92-2.94,3.07-4.3,3.8-.74.4-1.93-.34-2.27-.42-.65-.16-4.02.84-5.05,1.27-4.31,1.78-10.13,2.39-15.57,1.93-.1-1.39-.1-2.77.12-4.13,1.06-6.6,1.48-13.48,3.09-19.82.67-2.63-.25-4.26.8-6.72.91-2.14,3.06-5.31,3.79-7.59,1.2-3.74-1.58-7.44-.63-11.8,1.25-5.69,4.75-11.08,6.08-16.72.79-3.36-.81-6.75-.98-10.49h1.03c4.74,2.12,11.33,2.11,17.69,2.11h8.34c3.58,1.63,8.78,2.76,12.64,4.22h15.16c2.73.99,6.22-.25,9.1.84,3.61,1.37,8.13,2.05,11.62,3.38,2.27.14,4.55.28,6.82.42,1.73.64,3.8,1.43,5.56,2.11,1.09.14,2.19.28,3.29.42.08.42.17.84.25,1.27h7.33c.08-.42.17-.84.25-1.27,1.01-.14,2.02-.28,3.03-.42.94-.42,1.91-1.7,2.78-2.11h2.53c2.49-.96,4.98-1.22,7.58-2.53,5.76-2.91,11.94-7.49,17.44-10.56,1.26-.14,2.53-.28,3.79-.42,4.29-2.41,9.32-5.93,13.65-8.44,2.45-1.42,4.07-1.24,6.57-2.53,2.52-1.31,3.58-4.54,5.56-6.33,1.71-1.55,3.09-2.39,4.55-4.22,1.24-1.55,1.99-5.55,3.54-6.33v-5.91c-.52-.16-.49-.1-.76-.42-1.76-3.31-1.87-9.69-3.29-13.51-4.21-11.39-8.19-22.9-12.89-33.36-1.7-3.78-5.05-6.44-7.33-9.29-1.88-2.35-3.38-6.26-5.31-8.44-2.51-2.86-5.21-4.66-7.58-7.6-1.44-1.78-2.39-4.99-3.79-6.76-1.12-1.41-2.69-1.54-3.54-3.38-3.06-6.67-6.36-12.94-9.1-20.27-.81-2.17-.89-3.87-1.52-6.33-1.93-7.65-4.97-16.82-7.83-23.22-3.53-7.88-7.99-14.72-11.62-22.8-1.26-2.81-4.04-4.52-4.55-8.44h-2.27c-.09.88-.06.81-.25,1.27-1.97,2.68-7.18-.78-10.36.42-6.06,2.3-11.73,2.62-16.68,6.33-1.09.28-2.19.56-3.29.84-7.51,4.72-15.53,9.66-22.74,14.78-.84.28-1.68.56-2.53.84-1.09.89-2.98,2.5-4.04,3.38-.84.28-1.68.56-2.53.84-3.65,3.03-7.48,5.54-11.37,8.44-1.23.92-2.94,3.07-4.3,3.8-.74.4-1.93-.34-2.27-.42-.65-.16-4.02.84-5.05,1.27-5.25,2.17-12.73,2.59-19.04,1.48-.27-.67-.55-1.31-.83-1.9-2.81-5.77-1.19-13-.98-17.92.11-2.45-2.54-5.97-3.13-7.92-1.32-4.35-1.37-12.47-.77-16.62-.87-4.13-1.73-8.27-2.6-12.4.42-2.78.32-8.97-1.31-12.14-.65-1.27-2.01-3.63-2.65-4.91-.37-2.3-.73-4.59-1.1-6.89-2.16-4-6.97-10.43-6.87-15.75.04-2.11.2-4.34.43-6.55,2.02-.61,3.97-1.3,5.74-1.99,1.6-.14,3.2-.28,4.8-.42,4.29-1.63,9.8-1.69,14.91-1.69h11.12c4.74,2.12,11.33,2.11,17.69,2.11h8.34c3.58,1.63,8.78,2.76,12.64,4.22h15.16c2.73.99,6.22-.25,9.1.84,3.61,1.37,8.13,2.05,11.62,3.38,2.27.14,4.55.28,6.82.42,1.73.64,3.8,1.43,5.56,2.11,1.09.14,2.19.28,3.29.42.08.42.17.84.25,1.27h7.33c.08-.42.17-.84.25-1.27,1.01-.14,2.02-.28,3.03-.42.94-.42,1.91-1.7,2.78-2.11h2.53c2.49-.96,4.98-1.22,7.58-2.53,5.76-2.91,11.94-7.49,17.44-10.56,1.26-.14,2.53-.28,3.79-.42,4.29-2.41,9.32-5.93,13.65-8.44,2.45-1.42,4.07-1.24,6.57-2.53,2.52-1.31,3.58-4.54,5.56-6.33,1.71-1.55,3.09-2.39,4.55-4.22,1.24-1.55,1.99-5.55,3.54-6.33v-5.91c-.52-.16-.49-.1-.76-.42Z"/><path class="cls-1" d="M2815.2,64.49c-1.39-6.44,1.03-13-.71-18.09-.86-2.51.35-5.96-.36-8.87-.23-.96-1.37-2.94-1.07-4.26.2-.86,1.44-3.32,2.14-3.9-.12-.82-.17-.88-.36-1.42-19.6-.02-42.06,1.63-59.9-1.06h-9.98c-10.73,0-23.33.94-32.44-1.06h-13.9c-13.34,0-29.38,1.5-41-1.06h-42.78c-6.71-1.44-14.12-1.06-21.75-1.06h-8.56c-5.87-1.26-12.15-.35-18.54-.35-6.98,0-12.88-.71-20.32-.71-24.7,0-47.9,0-71.31,0-6.98,0-15.81,1.02-22.11-.35-1.81-.39-2.91.34-3.92-.71h-81.65c-.27.19-.48,1.5-.71,1.77-1.25.78-4.44-.05-5.7.71h-.36v.35c3.07,1.24,5.08,2.38,7.49,3.9v5.67c.29.72,1.87,1.91,1.07,3.9-1.37,3.41-5.57,15.72-4.28,20.93.78,3.15,3.02,10.5,2.14,14.54-.48,2.18-1,5.17-1.07,7.45-.07,2.32.74,3.06,1.07,4.26-.36,3.66-.71,7.33-1.07,10.99-.88,3.42-2.71,6.97-3.57,10.29v3.9c-1.75,5.83-2.82,11.09-5.35,15.96-.81,1.57-.29,2.78-1.07,4.61-1.32,3.08-8.77,13.08-11.77,14.19v1.77c.85.58,1.13.95,1.43,2.13h12.12c1.47-.66,4.97-1.82,7.84-1.06,6.04,1.59,14.49.98,20.68-.35,2.54-.55,6.93-.07,8.91.35,4.91,1.06,17.71-.19,21.75-1.06,4.76-1.03,10.07,0,15.33,0h4.28c1.55-.6,3.52-2.54,4.99-3.19,2.59-1.14,4.96-.32,7.84-1.06,6.68-1.71,14.24-3.61,21.04-5.32,5.06-1.27,10.56-1.02,15.33-2.13,1.78-.12,3.57-.24,5.35-.35,8.07-3.42,17.79-5.61,26.74-8.51h2.85c1.39-.36,3.16-.75,4.93-1.14-.01,1.79-.1,3.55-.36,5.25.25,1.56.5,3.11.74,4.67-3.63,22.1,3.31,46.58-.32,68.65.29,1.84.59,3.68.88,5.52-.64,3.91-.28,9.7-.96,13.6.29,1.84.59,3.68.88,5.52-.99,6.38.59,14.38-.42,20.9.22,1.42.45,2.83.68,4.25-1.5,8.64,1.4,18.26-.02,27.36-2.8,18.05,1.91,37.49-1.19,55.32.29,1.84.59,3.68.88,5.52-.61,3.96-.35,9.31-1.03,13.17.25,1.56.5,3.11.74,4.67-1.28,8.05.42,17.79-.9,25.75.32,1.98.63,3.96.95,5.94-5.33,28.54,1.16,60.82-3.86,89.57-.97,5.55,1.55,10.06.6,15.55-3.66,21.18-.04,44.44-3.97,65.27-1,5.27,1.43,9.58.46,14.7-2.72,14.33-1.27,30.28-4.23,44.03.34,3.43.67,6.85,1.01,10.28-.93,5.34-.62,11.97-1.64,17.17.18,2.43.36,4.87.54,7.3-.98,5.41-.56,12.32-1.57,17.59.27,1.7.54,3.4.81,5.09-.97,4.23-4.45,9.2-4.75,13.27,2.59-.82,4.36-3.21,4.82-5.03,6.13-1.68,14.61-1.33,20.4-1.18,5.69-.81,11.39-1.63,17.08-2.44,7.47.14,16.06,0,23.73.08,6.91-.99,13.83-1.98,20.74-2.96,3.91.24,8.65,1.32,12.13,1.74,5.78.69,14.28-.52,16.74,3.25,4.91-1.26,4.44-6.13,5.36-9.45,1.45-5.22,1.02-12.78,2.05-18.53.78-4.37-1.8-7.55-.6-11.64,1.3-4.46,3.46-10.07,4.48-14.97,1.96-9.33.09-18.64,1.85-27.62-.15-4.9-.31-9.8-.46-14.7-.38-2.41-.77-4.81-1.15-7.22,1.89-10.62,2.43-23.84,4.5-34.51,1.16-5.99-2.07-12.45-1.07-18.52,1.07-6.51,1.51-13.3,3.13-19.55.67-2.59-.24-4.2.82-6.63.92-2.11,3.07-5.24,3.8-7.49,1.2-3.69-1.57-7.34-.6-11.64,1.26-5.62,4.77-10.94,6.11-16.5.98-4.07-1.64-8.18-.8-12.91.67-3.76.82-9.36,1.03-13.17.17-3.07-3.38-7.17-4.6-9.33-1.4-2.47-1.45-5.47-2.44-7.47-.49-3.11-.99-6.23-1.49-9.34-1.68-10.55-2.84-20.05-1.47-28.88.69-4.45-4.37-10.19-3.86-12.48.03-.14,1.54-1.27,1.63-1.54.07-2.18.14-4.36.21-6.54.35-1.36,2.02-3.39,2.38-4.68-.7-5.69-1.39-11.38-2.09-17.07,1.78-10.84-.89-33.76-5.67-43.48-2.79-5.68-1.16-12.82-.94-17.67.11-2.42-2.52-5.88-3.11-7.81-1.31-4.28-1.35-12.3-.73-16.4-.86-4.07-1.71-8.15-2.57-12.23.43-2.75.34-8.85-1.28-11.98-.65-1.25-2-3.58-2.64-4.83-.36-2.26-.72-4.53-1.08-6.79-2.15-3.94-6.95-10.28-6.84-15.52.11-5.22.97-11.13,1.84-15.9-.36-2.26-.72-4.53-1.08-6.79-1.66-10.47-5.11-19.23-9.34-27.32-.43-2.69-.86-5.38-1.28-8.07-.54-3.38-1.4-6.25-2.64-8.74-2.15-4.34.31-8.73-2.16-13.59-2.7-5.31-4.25-10.17-5.7-14.93.09-.04.19-.08.28-.11h8.91c12.05-2.74,22.2-2.11,32.8,1.06,3.97,1.19,9.7-.43,12.48-1.06h5.35c4.25-.93,7.71-.9,11.77,0,5,1.11,9.13-1.19,12.12-2.13h4.28c1.65-.46,4.31-1.63,6.06-2.13,4.61-1.31,8.65-.91,12.84-2.48,1.05-.4,2.21-1.79,3.21-2.13h9.27c2.19.6,4.48,2.27,6.42,3.19,1.12.53,2.73,1.15,3.57,1.42h2.85c2.1.91,4.47,3.35,6.77,4.26,2.64,1.04,6.27,1.49,8.91,2.13,3.44.83,6.32-1.42,8.56-2.13h2.5c5.09-1.26,10.95-1.5,15.69-3.19,10.35-3.7,14.29-12.64,29.95-8.87,3.06.74,6.23-.06,8.56,1.42,2.8-.05,3.03.78,3.92,2.48,7.63-3.23,5.14-18.92,3.21-26.6-.89-3.55-.34-7.28-1.07-10.64Z"/><path class="cls-1" d="M3205.32,644.92c-1.65-1.48-4.71-3.98-6.07-5.56-.29-.83-.58-1.66-.87-2.49-.53-.54-2.11-1.14-2.6-1.73-.14-.77-.29-1.53-.43-2.3-.43-.57-1.94-.9-2.6-1.34-2.39-1.6-4.19-3.58-6.5-5.18-.58-.77-1.16-1.53-1.73-2.3-.55-.53-2.05-.97-2.6-1.53-.29-.57-.58-1.15-.87-1.73-.37-.32-1.8-.66-2.17-.96-.43-.83-.87-1.66-1.3-2.49-.55-.46-2.08-.99-2.6-1.53-.29-.64-.58-1.28-.87-1.92-.53-.47-2.14-1.03-2.6-1.53-.29-.64-.58-1.28-.87-1.92-.56-.58-2.09-1.14-2.6-1.73l-.87-2.11c-.54-.45-2.17-.97-2.6-1.53-.14-1.09-.29-2.17-.43-3.26-.56-.86-2.39-1.48-3.03-2.3-2.81-3.56-4.45-7.3-7.8-10.54-6.87-.58-23.09-.65-29.91,0-3.51.33-7.38-.27-10.4.19-1.47.23-3.14.96-4.77,1.15-3.81.45-12-.83-15.17-1.15-5.55-.57-14.23.36-18.2-.96h-.87v-.77h-33.37c-.1.44-.09.54-.43.77-4.28,1.46-13.04-.04-19.5.38-.97.06-1.97.11-2.98.16-.32-5.47.65-11.3.64-17.08v-6.06c-.94-2.2-3.95-4.98-4.96-7.06-1.77-3.67-.5-7.02-1.65-11.1-2.66-9.45-5.61-20.15-8.27-29.77-1.98-7.17-1.59-14.95-3.31-21.7-.18-2.52-.37-5.05-.55-7.57-5.31-11.42-8.71-25.18-13.22-37.85v-4.04c-1.04-3.69-2.3-9.28-3.31-13.12-.18-2.86-.37-5.72-.55-8.58-2.25-7.72-6.68-15.05-9.37-23.21-.18-2.19-.37-4.37-.55-6.56-.78-3.03-1.46-6.48-2.15-9.88,6.72-.14,15.41,1.07,19.45,1.59,2.91.13,5.83.26,8.75.38,1.87.28,4.48.87,6.3,1.15,2.68.19,5.36.38,8.05.57,3.11.54,8.66,1.91,13.64,1.15,1.56-.24,2.82-1.05,4.2-1.34,1.28-.13,2.57-.26,3.85-.38,3.52-.8,8.52-1.99,12.24-2.68,1.4-.06,2.8-.13,4.2-.19,2.41-.34,5.08-.99,7.35-1.34,2.45-.13,4.9-.26,7.35-.38,5.11-.78,11.53-2.19,16.44-2.88h5.95c1.5-.23,2.56-1.06,3.85-1.34,1.28-.13,2.57-.26,3.85-.38.85-.19,1.95-.76,2.8-.96,1.87-.19,3.73-.38,5.6-.57,6.84-1.4,14.79-3.11,22.39-4.22,2.33-.13,4.66-.26,7-.38,4.92-.76,11.61-1.89,16.44-2.68,1.4-.06,2.8-.13,4.2-.19,4.68-.75,11.14-2.98,15.39-4.22,5.93-1.72,11.08-3.2,14.69-6.13.23-.38.47-.77.7-1.15.67-.55,1.59-.6,2.1-1.34.81-.75.7-3.82,0-4.6-1.33-1.48-3.8-3.98-4.9-5.56-.23-.83-.47-1.66-.7-2.49-.43-.54-1.7-1.14-2.1-1.73-.12-.77-.23-1.53-.35-2.3-.35-.57-1.57-.9-2.1-1.34-1.93-1.6-3.38-3.58-5.25-5.18-.47-.77-.93-1.53-1.4-2.3-.45-.53-1.65-.97-2.1-1.53-.23-.57-.47-1.15-.7-1.73-.3-.32-1.46-.66-1.75-.96-.35-.83-.7-1.66-1.05-2.49-.44-.46-1.68-.99-2.1-1.53-.23-.64-.47-1.28-.7-1.92-.43-.47-1.73-1.03-2.1-1.53-.23-.64-.47-1.28-.7-1.92-.45-.58-1.69-1.14-2.1-1.73-.23-.7-.47-1.41-.7-2.11-.44-.45-1.75-.97-2.1-1.53-.12-1.09-.23-2.17-.35-3.26-.45-.86-1.93-1.48-2.45-2.3-2.27-3.56-3.59-7.3-6.3-10.54-5.55-.58-18.63-.65-24.14,0-2.84.33-5.95-.27-8.4.19-1.18.23-2.53.96-3.85,1.15-3.08.45-9.69-.83-12.24-1.15-4.48-.57-11.48.36-14.69-.96h-.7v-.77h-26.94c-.08.44-.07.54-.35.77-3.46,1.46-10.53-.04-15.74.38-9.09.74-20.35.19-30.08.19h-10.84c-6.82.88-10.96,3.04-18.19,4.03h-7c-3.16.39-7.31.22-10.84.77-.86.13-1.81.29-2.79.45.35-7.52,1.82-14.79,4.26-22.22,1.85-5.62-.67-13.73-1.65-17.66v-7.57c-1.44-6.01-1.41-10.91,0-16.65,1.73-7.07-1.84-12.93-3.31-17.16v-6.06c-.71-2.34-2.53-6.11-3.31-8.58-2.04-6.52-1.41-12.25-3.86-18.17-.62-1.49-2.78-3.13-3.31-4.54v-13.12c.93-3.1,3.53-6.35,4.96-9.08.83-1.58,1.78-3.87,2.2-5.05v-4.04c1.42-2.97,5.2-6.33,6.61-9.59,1.62-3.74,2.32-8.87,3.31-12.62,1.28-4.87-2.21-8.94-3.31-12.11v-3.53c-.52-1.93-.93-3.94-1.3-5.97.26-.03.52-.05.79-.1,1.95-.35,4.01-1.04,6.3-1.34,6.8-.89,18.26.72,23.09,1.34,2.91.13,5.83.26,8.75.38,1.87.28,4.48.87,6.3,1.15,2.68.19,5.36.38,8.05.57,3.11.54,8.66,1.91,13.64,1.15,1.56-.24,2.82-1.05,4.2-1.34,1.28-.13,2.57-.26,3.85-.38,3.52-.8,8.52-1.99,12.24-2.68,1.4-.06,2.8-.13,4.2-.19,2.41-.34,5.08-.99,7.35-1.34,2.45-.13,4.9-.26,7.35-.38,5.11-.78,11.53-2.19,16.44-2.88h5.95c1.5-.23,2.56-1.06,3.85-1.34,1.28-.13,2.57-.26,3.85-.38.85-.19,1.95-.76,2.8-.96,1.87-.19,3.73-.38,5.6-.57,6.84-1.4,14.79-3.11,22.39-4.22,2.33-.13,4.66-.26,7-.38,4.92-.76,11.61-1.89,16.44-2.68,1.4-.06,2.8-.13,4.2-.19,4.68-.75,11.14-2.98,15.39-4.22,5.93-1.72,11.08-3.2,14.69-6.13.23-.38.47-.77.7-1.15.67-.55,1.59-.6,2.1-1.34.81-.75.7-3.82,0-4.6-1.33-1.48-3.8-3.98-4.9-5.56-.23-.83-.47-1.66-.7-2.49-.43-.54-1.7-1.14-2.1-1.73-.12-.77-.23-1.53-.35-2.3-.35-.57-1.57-.9-2.1-1.34-1.93-1.6-3.38-3.58-5.25-5.18-.47-.77-.93-1.53-1.4-2.3-.45-.53-1.65-.97-2.1-1.53-.23-.57-.47-1.15-.7-1.73-.3-.32-1.46-.66-1.75-.96-.35-.83-.7-1.66-1.05-2.49-.44-.46-1.68-.99-2.1-1.53-.23-.64-.47-1.28-.7-1.92-.43-.47-1.73-1.03-2.1-1.53-.23-.64-.47-1.28-.7-1.92-.45-.58-1.69-1.14-2.1-1.73-.23-.7-.47-1.41-.7-2.11-.44-.45-1.75-.97-2.1-1.53-.12-1.09-.23-2.17-.35-3.26-.45-.86-1.93-1.48-2.45-2.3-2.27-3.56-3.59-7.3-6.3-10.54-5.55-.58-18.63-.65-24.14,0-2.84.33-5.95-.27-8.4.19-1.18.23-2.53.96-3.85,1.15-3.08.45-9.69-.83-12.24-1.15-4.48-.57-11.48.36-14.69-.96h-.7v-.77h-26.94c-.08.44-.07.54-.35.77-3.46,1.46-10.53-.04-15.74.38-9.09.74-20.35.19-30.08.19h-10.84c-6.82.88-10.96,3.04-18.19,4.03h-7c-3.16.39-7.31.22-10.84.77-4.46.69-10.77,1.84-15.04,2.68-2.13.15-4.27.3-6.4.46-9.64-2.62-24.3-.3-32.74,1.63-5.51,1.26-11.3.48-16.53,1.51-10.01,1.97-20.2-1.46-28.1,1.01-3.9,1.22-9.25-.5-13.78.5-1.49.33-4.57,1.94-6.61,1.51-1.33-.28-5.16-2.04-6.06-3.03-1.27.16-1.37.23-2.2.5-.04,27.74,2.53,59.54-1.65,84.78v14.13c0,15.19,1.46,33.02-1.65,45.92v19.68c0,18.88,2.32,41.58-1.65,58.03v60.56c-2.23,9.49-1.65,19.99-1.65,30.78v12.11c-1.95,8.3-.55,17.19-.55,26.24,0,9.88-1.1,18.23-1.1,28.76,0,34.95,0,67.79,0,100.93,0,9.88,1.58,22.38-.55,31.29-.61,2.56.52,4.12-1.1,5.55v63.83h-1.66v1.73c.53.01,1.09.09,1.66.22v49.78c.3.39,2.33.68,2.76,1.01,1.21,1.77-.08,6.29,1.1,8.07v.5h.55c1.92-4.35,3.69-7.19,6.06-10.6h8.82c.89-.33,2.26-1.82,4.35-1.83,2.28,3.21,5.57,6.51,9.37,9,1.36.89,3.83,1.77,5.2,2.68,2.21,1.46,3.33,3,5.63,4.41,1.72,1.05,5.01,1.9,7.37,2.68,4.5,1.5,8.14,3.6,13,4.98v.77h6.07c.41-2.01,16.27-3.82,20.8-4.6,1.18-.2,2-.75,3.03-.96,2.08-.41,4.18-.24,6.5-.57,2.42-.35,4.97-1.04,7.8-1.34,8.43-.89,22.63.72,28.61,1.34,3.61.13,7.22.26,10.84.38,2.31.28,5.55.87,7.8,1.15,3.32.19,6.65.38,9.97.58,2.27.32,5.59.92,9.19,1.21,6.47,3.94,15.62,10.73,16.93,13.93h2.76c.91-1.2,1.48-1.6,3.31-2.02v-14.67c3.34-.62,6.93-1.26,9.87-1.7,1.73-.06,3.47-.13,5.2-.19,2.99-.34,6.29-.99,9.1-1.34,3.03-.13,6.07-.26,9.1-.38,6.33-.78,14.29-2.19,20.37-2.88h7.37c1.86-.23,3.18-1.06,4.77-1.34,1.59-.13,3.18-.26,4.77-.38,1.06-.19,2.41-.76,3.47-.96,2.31-.19,4.62-.38,6.93-.58,8.47-1.4,18.33-3.11,27.74-4.22,2.89-.13,5.78-.26,8.67-.38,6.09-.76,14.38-1.89,20.37-2.68,1.73-.06,3.47-.13,5.2-.19,5.8-.75,13.8-2.98,19.07-4.22,7.35-1.72,13.72-3.2,18.2-6.13.29-.38.58-.77.87-1.15.83-.55,1.97-.6,2.6-1.34,1.01-.75.87-3.82,0-4.6Z"/><path class="cls-1" d="M600.12,255.62c-1.3-1.17-2.64-5.63-3.86-5.93-.05-1.39,1.14-1.69,1.69-2.72.6-1.13.84-2.79,1.07-3.85.73-3.44,1.23-6.35,1.63-9.71.33-2.81-.51-5.21-.26-7.8.18-1.93-1.07-5-1.93-6.36-.73-2.46-1.46-4.91-2.19-7.37-1.38-5.51-2.28-11.75-5.05-16.07-.37-1.47-.74-2.95-1.11-4.42-.94-3.75-1.81-7.69-3.63-10.44-.84-3.35-1.68-6.7-2.52-10.05-.94-3.75-1.88-7.51-2.82-11.26-1.22-1.87-2.11-4.39-2.73-6.82-1.09-4.36-2.18-8.71-3.28-13.07-3.34-5.12-5.24-12.79-6.86-19.27-.79-3.15-1.58-6.3-2.37-9.45-1.5-2.3-1.16-6.19-2.91-8.9-1.85-2.86-.98-7.5-2.99-10.58-1.38-2.11-2.36-5.36-3.03-8.03-1.56-6.19-3.82-11.2-5.3-17.07-1.15-4.57-1.82-10.34-4.01-14.21.32-.73.63-1.47.9-2.2,1.35-3.69,2.41-9.14,5.11-10.72v-1.46c-2.38-.29-2.11-1.99-3.74-2.92-2.83-1.63-6.29-2.21-9.41-3.23-.76-.91-1.73-1.94-2.26-2.58-.7-.86-.1-1.75.46-2.23-.29-.3-.11-.18-.42-.33-2.11-.38-8.27,1.31-10.62,2.18-2.99,1.11-7.64,1.38-9.93,2.24-2.56.96-5.91,2.49-8.99,3.3-4.19,1.11-11.98,1.84-13.04,3.36-2.41.24-4.16-.63-6-.98-3.95-.76-7.83-1.15-11.95-1.77-.49-.07-1.42-.6-1.85-.64-1.5.34-2.99.67-4.49,1.01-1.03.23-2.01.47-2.95.71-.96-.35-1.94-.69-2.95-1.03-4.38-1.49-8.53-1.14-12.59-2.44-3.02-.96-8.4-.27-10.89.49-4.2.16-8.4.32-12.59.49-9.33,0-19.65-.96-27.57,1.46h-7.49c-6.35,0-12.97-.16-18.04,1.46h-36.08c-3.43,1.08-7.8,1.46-11.91,1.46h-22.12c-9.4,2.96-22.38,2.92-33.35,2.92h-16c-4.23,1.32-10.34-.57-15.32.97-5.25,1.63-12.37-1.3-18.04.49-3.88,1.22-9.44,1.46-13.95,1.46-10.48.02-19.33,1.46-29.27,1.46-8.23,0-18.45-1.29-25.53.97h-5.45c-4.48.08-11.67-.44-16,.97-3.66,1.2-7.31-.4-11.23.97-1.93.68-4.86,2.23-6.47,2.92-1.63.7-2.84-.49-3.4-1.46-.59.31-.33.1-.68.49-1.36,2.9-.89,12.38-.34,16.08.69,4.7-.54,11.5,0,15.11.61,4.03,1.85,9.41,2.04,14.13.26,6.43-1.38,17.91.68,19.98-.49,3.55-2.51,5.76-3.74,8.29-2.65,5.41-4.66,10.85-7.15,16.57-.3.68-1.48,1.83-1.7,2.44v6.82c0,7.33.41,13.22,1.7,18.52.49,2.02,1.58,5.86,1.02,8.29-.22.94-1.07,2.61-.68,4.87,1.43,8.37,3.1,17.33,4.67,25.98,0,0-.01.01-.02.02.01.01.02.03.03.04.16.9.33,1.81.49,2.71-.12.56-.23,1.13-.06,1.83.19.73.46,1.43.76,2.13.32,1.8.63,3.57.93,5.31.62-.04,1.19-.17,1.74-.35.6,1.06,1.17,2.12,1.61,3.2,2.17,2.05,4.33,4.11,6.5,6.16,8.96,8.49,19.34,8.13,29.67,10.2,2.73.55,8.37,5.43,10.25,4.89,1.27,1.81-.06,3.12.1,4.92.17,1.97,1.29,4.35,1.91,5.95,1.99,5.14,3.85,9.4,6.23,14.17,1.98,3.99,5.17,6.52,7.09,10.16,1.42,2.7,5.74,5.82,8.07,6.96,3.09,2.7,6.18,5.4,9.27,8.1,6.6,6.25,13.18,13.85,20.58,17.44,1.76,1.67,3.53,3.35,5.29,5.02,4.49,4.25,9.05,8.81,13.85,11.06,4.01,3.8,8.02,7.6,12.03,11.41,4.49,4.26,8.99,8.52,13.48,12.78,3.23,1.54,6.61,4.2,9.51,6.95,5.21,4.94,10.43,9.89,15.64,14.83,8.86,4.21,18.01,12.93,25.77,20.29,3.77,3.57,7.54,7.15,11.31,10.72,3.98,1.9,6.89,7.33,11.56,9.58,4.93,2.37,7.78,9.21,13.12,11.75,3.65,1.74,7.76,5.3,10.96,8.32,7.42,7.01,14.75,11.92,21.79,18.58,5.82,5.51,12.08,13.28,18.78,16.42,1.28,1.22,2.57,2.43,3.85,3.65,3.23,2.94,7.92,8.13,12.04,10.03,3.48,1.6,4.87,5.19,8.67,6.84.32.14.69.28,1.08.42-1.37,1.12-2.72,2.25-4.02,3.4-1.62,1.44-1.65,3.42-3.43,5.1-2.16,2.04-4.96,4.11-7.11,6.06-1.73,1.57-2.39,3.55-3.8,4.94-.98.96-1.36,3.05-1.48,3.95-.27,1.99-2.96,4.55-4.27,5.88-.62.63-.45,1.6-.55,2.06-.73,1.79-1.45,3.58-2.18,5.36-.18,2.31-.62,5.61-2.97,7.89-3.95,3.85-6.53,10.18-10.57,14.03-.35.71-.7,1.42-1.05,2.13-3.21,2.78-6.53,5.57-9.83,8.4-3.86-1.35-7.46-3.49-9.77-4.59-.87-.12-1.75-.25-2.62-.38-2.03-.82-6.35-2.17-9.44-1.13-8.84,2.98-17.66,6.76-26.22,10.14h-2.36c-5.13,1.76-11.94,1.32-17.04,3-3.03,1-6.21.03-8.39-.75-1.92-.13-3.85-.25-5.77-.38-.46-.1-1.27-.63-2.1-.38-1.73.54-5.15,1.71-7.08,1.13-.86-.26-2.92-.79-4.19-.38-1.83.6-3.9.34-6.03,1.13-2.64.98-5.66,2.43-8.39,3.38-2.24.78-4.07,0-6.03.75-5.13,1.95-10.29,4.36-15.21,6.76-4.02,1.13-8.04,2.25-12.06,3.38-2.18,1.05-4.3,3.2-6.29,4.5-2.08,1.36-4.7,2.28-6.82,3.38-3.29,1.71-7.47,2-10.75,3.38-1.33.56-2.57,1.05-3.41,0-1.29.4-1.85,1.52-2.64,2.47.03-.13.07-.27.09-.4-.1-.83-.2-1.66-.3-2.5.31-2.07.55-6.38-1.31-8.93-5.34-7.31-11.48-14.4-17.16-21.35-.2-.72-.41-1.44-.61-2.16-3.12-4.24-4.46-10.59-7.5-14.81-1.81-2.51-1.65-5.68-1.42-7.87-.37-1.79-.75-3.58-1.12-5.38-.02-.45.31-1.33-.16-2.02-1-1.45-3.08-4.27-2.99-6.18.04-.86.04-2.88-.71-3.94-1.09-1.52-1.36-3.48-2.72-5.22-1.68-2.17-3.95-4.55-5.63-6.8-1.38-1.85-1.06-3.72-2.34-5.32-3.32-4.19-7.13-8.28-10.84-12.15-2.19-3.38-4.39-6.77-6.58-10.16-1.64-1.72-4.38-3.1-6.23-4.58-1.93-1.55-3.54-3.7-5.22-5.36-2.6-2.56-3.98-6.32-6.24-8.96-.92-1.07-1.74-2.07-.89-3.12-.88-1.29-2.57-1.35-3.88-2.1-2.7-1.54-5.49-3.32-7.65-5.25-3-2.69-4.92-6.33-7.53-9.14-.98-1.05.02-1.68-.75-2.64-1.1-1.37-3.6-2.9-4.88-4.16-2.73-2.7-4.79-5.66-7.25-8.18-3.81-3.9-4.19-10.89-9.21-13.6,0-.91.03-.88.81-1.49-.98-2.03-6.35-4.32-8.37-6.35-2.39-2.39-2.86-5.13-5.07-7.71-1.78-2.07-4.03-4.36-5.56-6.56-.49-.71.22-1.28-.1-1.78-2.1-3.33-6.92-6.1-9.89-8.8-1.29-1.18-2.98-2.24-3.84-3.39-.03-.59-.06-1.18-.1-1.78-.36-.41-7.08-3.09-7.87-3.14-3.7-.23-7.9,1.33-11.88,1.5-4.22.18-8.31-.98-12.25-1.24-3.16-.21-7.65.14-9.44-1.45-.38.1-.76.2-1.15.29.25,1.74-1.13,1.89-1.54,3.23-.85,2.78-.33,5.91-.8,8.7.61,2.16,1.23,4.32,1.84,6.48,2.54,8.93,9.62,12.47,15.68,17.61,1.6,1.36,3.39,6.67,4.86,6.99.11,1.67-1.3,2.06-1.93,3.32-.68,1.38-.9,3.38-1.13,4.67-.75,4.15-1.24,7.68-1.58,11.73-.29,3.39.81,6.24.62,9.37-.15,2.32,1.48,5.97,2.57,7.58.97,2.93,1.94,5.85,2.91,8.78,1.87,6.57,3.19,14.04,6.68,19.14.5,1.76,1,3.52,1.5,5.28,1.27,4.47,2.48,9.17,4.77,12.42,1.14,4,2.28,8,3.42,12,1.28,4.48,2.55,8.96,3.83,13.43,1.53,2.2,2.71,5.21,3.54,8.1,1.48,5.2,2.96,10.4,4.44,15.59,4.21,6.03,6.79,15.19,8.99,22.92,1.07,3.76,2.14,7.52,3.21,11.28,1.89,2.72,1.63,7.4,3.84,10.6,2.33,3.38,1.46,8.98,4,12.62,1.74,2.49,3.04,6.36,3.95,9.54,2.12,7.38,5.02,13.33,7.02,20.34,1.66,5.8,2.69,13.26,5.89,17.8.36,1.28.73,2.56,1.09,3.84.12.39.24.81.36,1.26-.01.05-.02.11-.03.16-.92,3.91-3.17,7.35-4.46,10.89-1.04,2.84-1.85,7.04-3.93,8.26v1.13c1.83.23,1.63,1.53,2.88,2.25,2.61,1.5,5.94,1.84,8.65,3h7.08c5.93,0,10.26-2.06,14.29-4.61,3.47-1.05,7.98-1.55,10.34-2.51,2.31-.94,5.16-2.29,8.01-3.37.18.26.39.5.66.72,1.23.99,3.21,1.7,4.46,2.25,4.04,1.77,7.5,3.13,11.53,4.5,3.37,1.15,6.57.88,9.7,1.88,2.33.74,6.47.2,8.39-.38,3.23-.13,6.47-.25,9.7-.38,7.19,0,15.13.74,21.23-1.13h5.77c4.89,0,9.99.13,13.89-1.13h27.79c2.64-.83,6.01-1.12,9.18-1.13h17.04c7.24-2.28,17.24-2.25,25.69-2.25h12.32c3.26-1.02,7.97.44,11.8-.75,4.05-1.25,9.52,1,13.89-.38,2.99-.94,7.27-1.12,10.75-1.13,8.07-.01,14.89-1.12,22.55-1.13,6.34,0,14.21,1,19.66-.75h4.19c2.64-.05,6.49.17,9.65-.21.68.29,1.33.58,1.91.86,3.59,1.75,7.32,4.45,10.22,6.24,2.6,1.61,8.28,3.07,11.67,5.16,2.68,1.64,9.84,5.21,12.54,5.26.42-.11.17,0,.61-.31-.56-.72-1.07-1.97.03-2.86,1.08-.88,3.28-2.38,4.47-3.49,2.4-2.25,2.41-5.34,4.59-7.46,2.57-2.52,4.62-7.69,6.22-10.77.62-1.26,1.24-2.52,1.86-3.78,4.17-4.14,6.66-11.68,9.47-17.39,3.4-6.9,7.53-12.55,11.12-19.82,1.55-3.13,3.63-6.91,5.89-9.19,3.32-3.33,3.48-9.26,6.54-12.36,2.89-2.93,3.52-7.81,5.98-10.3,1.82-3.7,3.64-7.4,5.46-11.1,3.75-7.62,8.15-16.64,13.65-22.16,2.52-5.12,5.04-10.24,7.55-15.36,1.41-2.85,3.19-5.76,5.2-7.77,2.17-4.41,4.34-8.82,6.51-13.23,1.94-3.94,3.87-7.88,5.81-11.81,2.99-2.96,5.12-7.62,7.29-12.02.85-1.73,1.7-3.47,2.56-5.2,4.57-4.67,7.36-12.16,10.54-18.64,1.56-2.86,3.12-5.72,4.68-8.58,1.43-1.47,3.81-4.97,4.1-7.39.39-3.27,2.07-6.03,2.42-9.57.41-4.24.58-7.97.59-12.39,0-1.37.16-3.47-.28-5.02-.41-1.41-1.79-2.06-1.36-3.76,1.59-.08,4.44-5.26,6.35-6.4,7.24-4.28,15.23-6.73,19.55-15.52,1.05-2.13,2.09-4.25,3.14-6.38.04-2.96,1.17-6.11.82-9.13-.17-1.45-1.57-1.85-.98-3.6-.38-.17-.75-.33-1.13-.5-2.14,1.33-6.72.21-10.03-.12-4.12-.4-8.57.09-12.9-.81-4.08-.85-8.12-3.18-11.99-3.57-.82-.08-8.28,1.53-8.73,1.9-.15.61-.29,1.21-.44,1.82-.92.87-2.44,1.59-3.83,2.38,2.08-2.79,4.14-5.53,6.14-8.16-2.95-2.43-7.16-1.51-10.5-2.37-6.98-1.79-11.69-6.6-18.69-7.38-5.48-.61-12.57,1.55-17.88.98-5.67-.61-10.73-4.53-15.92-6.81-8.29-3.65-10.78-16.15-12.72-21.71-.68-.88-1.36-1.75-2.04-2.63-1.07-2.53-3.73-7.52-7.57-9.25-11-4.95-22.75-9.16-33.88-13.51-.72-.68-1.44-1.37-2.17-2.05-6.41-2.85-12.24-9.18-18.55-12.07-3.75-1.72-5.73-5.38-6.97-7.99-1.64-1.79-3.29-3.58-4.93-5.36-.33-.49-.56-1.69-1.56-2.17-2.11-1.02-6.38-2.92-7.59-5.13-.54-.99-1.92-3.27-3.49-3.99-2.26-1.05-3.91-3.08-6.63-4.21-3.37-1.41-7.56-2.69-10.97-4.2-2.81-1.24-3.74-3.53-6.26-4.56-6.6-2.68-13.68-4.95-20.5-7.03-4.78-2.46-9.56-4.93-14.34-7.39-3.03-.93-7.05-.8-10.14-1.34-3.22-.56-6.52-2-9.53-2.83-4.67-1.29-8.8-4.67-13.14-6.25-1.77-.64-3.38-1.27-3.13-2.97-1.88-.91-3.82.06-5.8.02-4.09-.08-8.45-.37-12.19-1.22-5.21-1.18-9.86-4.11-14.71-5.67-1.82-.59-1.12-1.9-2.65-2.51-2.17-.87-6.03-1.05-8.33-1.69-4.92-1.37-9.25-3.43-13.75-4.76-6.95-2.05-12.15-9.69-19.65-9.66-.62-1.03-.57-1.01-.11-2.17-2.49-1.68-10.09-.97-13.76-2.01-4.32-1.23-6.71-4.02-10.97-5.57-3.41-1.24-7.52-2.44-10.73-3.97-1.04-.5-.63-1.58-1.32-1.94-4.64-2.46-11.96-2.61-17.13-3.83-.7-.17-1.45-.3-2.19-.42.63-.18,1.25-.38,1.86-.59,8.59-2.98,19.67,4.19,25.19,6.82,1.13.16,2.27.33,3.4.49,2.64,1.07,8.24,2.81,12.25,1.46,11.47-3.87,22.92-8.77,34.04-13.16h3.06c6.66-2.28,15.51-1.71,22.12-3.9,3.93-1.3,8.07-.03,10.89.97,2.5.16,4.99.32,7.49.49.6.13,1.65.82,2.72.49,2.25-.7,6.69-2.22,9.19-1.46,1.12.34,3.8,1.03,5.45.49,2.38-.78,5.06-.44,7.83-1.46,3.43-1.27,7.35-3.16,10.89-4.39,2.91-1.01,5.28,0,7.83-.97,6.66-2.53,13.36-5.67,19.74-8.77,5.22-1.46,10.44-2.92,15.66-4.39,2.84-1.37,5.59-4.16,8.17-5.85,2.7-1.76,6.1-2.95,8.85-4.39,4.27-2.22,9.7-2.59,13.95-4.39,1.73-.73,3.33-1.37,4.42,0,2.01-.61,2.66-2.6,4.08-3.9,2.95-2.68,6.25-5.4,9.53-7.31,4.57-2.66,10.04-3.7,14.64-5.85,1.72-.8,2.21.59,3.74,0,2.18-.84,5.05-3.3,7.15-4.39,4.5-2.33,9.11-3.78,13.27-5.85,3.64-1.81,8.22-1.99,12.46-2.71,1.8,2.32,3.6,4.61,5.34,6.89.15.6.3,1.21.45,1.81,2.48,3.59,3.42,8.91,5.84,12.49,1.44,2.13,1.22,4.76.97,6.58.26,1.5.53,3,.79,4.5,0,.37-.29,1.1.08,1.68.79,1.23,2.45,3.62,2.32,5.21-.06.71-.11,2.4.49,3.29.86,1.29,1.04,2.93,2.12,4.41,1.34,1.84,3.17,3.87,4.5,5.78,1.1,1.57.79,3.12,1.8,4.48,2.65,3.56,5.7,7.05,8.69,10.36,1.73,2.87,3.47,5.73,5.2,8.6,1.32,1.47,3.56,2.68,5.06,3.96,1.56,1.33,2.85,3.16,4.19,4.58,2.09,2.19,3.14,5.35,4.95,7.59.74.92,1.39,1.77.66,2.61.7,1.09,2.1,1.18,3.17,1.83,2.2,1.34,4.48,2.89,6.22,4.55,2.43,2.31,3.92,5.38,6.01,7.78.78.9-.06,1.39.55,2.21.87,1.16,2.92,2.49,3.94,3.57,2.2,2.31,3.83,4.82,5.81,6.97,3.06,3.33,3.19,9.16,7.29,11.53-.03.76-.05.73-.71,1.22.76,1.71,5.16,3.74,6.79,5.48,1.92,2.04,2.24,4.33,4.01,6.53,1.42,1.77,3.24,3.72,4.45,5.58.39.6-.21,1.06.03,1.48,1.66,2.82,5.59,5.23,7.99,7.55,1.04,1.01,2.42,1.94,3.1,2.91.01.49.02.99.03,1.48.29.35,5.8,2.73,6.46,2.79,3.07.28,6.6-.92,9.92-.96,3.51-.05,6.88,1.01,10.15,1.32,2.62.25,6.37.07,7.81,1.43.32-.07.64-.14.96-.22-.16-1.45.99-1.54,1.37-2.64.78-2.29.43-4.91.9-7.21-.45-1.81-.91-3.62-1.36-5.43-1.88-7.48-7.67-10.59-12.57-15.01ZM479.81,445.46c-.94.82-1.92,1.59-2.98,2.26-.09.06-.2.12-.29.17.13-.29.23-.57.23-.8,1.01-.74,2.03-1.24,3.04-1.63Z"/><path class="cls-1" d="M985.86,645.32c-.13-.98-.26-1.96-.39-2.94-.41-.68-1.81-1.57-2.18-2.3,0-.89,0-1.78-.01-2.66-.32-.7-1.7-1.28-2.25-1.86-2.01-2.12-3.38-4.61-5.31-6.72-.42-.95-.84-1.89-1.26-2.84-.44-.67-1.79-1.37-2.22-2.08-.18-.69-.35-1.38-.53-2.07-.3-.41-1.61-.99-1.9-1.37-.27-1-.54-2-.81-3-.44-.59-1.81-1.39-2.22-2.08l-.49-2.29c-.42-.6-1.86-1.45-2.22-2.08-.16-.76-.33-1.52-.49-2.29-.43-.73-1.8-1.57-2.18-2.3-.15-.83-.31-1.67-.46-2.5-.44-.58-1.9-1.39-2.22-2.08.05-1.25.1-2.5.15-3.75-.38-1.05-2.02-1.99-2.5-3.01-2.06-4.4-2.98-8.86-5.61-12.98-6.47-1.56-21.94-3.78-28.57-3.95-3.41-.09-7-1.28-9.97-1.16-1.44.06-3.16.67-4.75.67-3.72,0-11.32-2.52-14.29-3.31-5.21-1.38-13.66-1.47-17.22-3.49-.28-.04-.55-.08-.83-.11l.13-.87c-10.63-1.47-21.25-2.94-31.88-4.41-.17.49-.18.6-.55.81-4.34,1.08-12.45-1.77-18.7-2.14-3.49-.21-7.23-.61-11.06-1.1v-.62c-.87-2.21-3.66-5.01-4.59-7.1-1.64-3.68-.47-7.05-1.53-11.15-2.46-9.49-5.19-20.24-7.65-29.91-1.83-7.2-1.47-15.01-3.06-21.8-.17-2.53-.34-5.07-.51-7.6-4.91-11.48-8.06-25.3-12.25-38.02v-4.06c-.94-3.62-2.08-9.08-3-12.92,2.92.07,5.84.13,8.76.2,8.1,1.02,16.83,1.3,27.19,1.3h8.61c11.71-1.47,22.78-2.41,34.44-4.16,3.32-.5,8.67-1.73,13.59-1.04,8.58,1.2,18.91,2.36,27.19,3.64,2.27.09,4.53.17,6.8.26,5.36.81,11.97,1.79,16.77,2.6,1.89.32,2.85,0,4.08.52h.91v.78h9.06c-.22-2.87-3.89-2.76-4.98-4.93-.78-1.54,0-4.56.45-5.71,1.27-3.27.29-6.49,2.27-9.35,1.34-1.94,4.61-3.94,6.34-5.71,1.44-1.48,1.68-2.71,3.17-4.16.28-.27,1.61-.76,1.81-1.04v-2.34c.94-1.66,3.49-3.8,4.53-5.45,1.72-2.72,2.68-5.7,4.08-8.31.3-1.99.6-3.98.91-5.97,1.15-2.46,2.93-6.01,4.08-8.31v-3.38c.15-3.98.3-7.97.45-11.95.98-2.28,2.68-5.1,4.08-7.01.15-.78.3-1.56.45-2.34,1.71-2.24,4.87-4.26,4.98-7.27h1.36v-13.51c-2.36-2.51-1.83-7.29-1.81-11.17-2.3-1.38-4.47-3.09-7.25-4.16-2.47-.95-5.66-1.09-8.16-2.08-.34-.28-.28-.24-.45-.78h-49.39v.78c-9.19.26-19.75.81-27.64,1.82h-14.5c-1.45.23-3.08,1.07-4.53,1.3h-16.77c-2.26.32-5.2.97-7.7,1.3h-29.91c-11.27,1.47-27.16,1.15-38.52,2.6h-6.19c-2.74-15.07-1.62-28.19,2.51-41.83,1.71-5.64-.62-13.79-1.53-17.74v-7.6c-1.33-6.04-1.3-10.96,0-16.73,1.6-7.1-1.71-12.99-3.06-17.23v-6.08c-.65-2.35-2.35-6.13-3.06-8.62-1.89-6.55-1.31-12.3-3.57-18.25-.57-1.49-2.57-3.15-3.06-4.56v-13.18c.87-3.11,3.27-6.38,4.59-9.12.76-1.59,1.65-3.89,2.04-5.07v-4.06c.3-.69.73-1.4,1.21-2.12,8.54-.28,17.91-.82,25.08-1.74h14.5c1.45-.23,3.08-1.07,4.53-1.3h16.77c2.26-.32,5.2-.97,7.7-1.3h29.91c11.27-1.47,27.16-1.15,38.52-2.6h11.78c10.49-1.31,24.33-.94,34.44-2.34,3.31-.46,9.04.42,11.78-.52h9.52c2.1-.52,9.58-4.05,10.88-5.19h1.36v-4.67h-1.36c-1.59-4.18-5.5-7.25-7.7-10.91-1.77-2.95-1.47-5.9-2.72-9.09v-2.86c-1.82-4.25-3.69-8.56-5.89-12.21.31-.82,2.23-1.67,1.36-3.12-.54-.89-2.75-2.03-3.62-2.86-1.75-1.66-3.12-3.81-4.53-5.45-1.93-2.25-1.61-4.78-3.17-7.27-3.81-6.08-7.8-13.36-10.88-19.74-2.19-4.54-.37-12.14-1.81-16.88,1.51-.52,3.02-1.04,4.53-1.56-.31-2.54-4.85-2.57-7.7-3.64-6.77-2.52-15.49-5.63-26.73-4.67-3.17.09-6.34.17-9.52.26-5.19.84-7.36.47-12.69-.26-3.78-.09-7.55-.17-11.33-.26-8.1-1.02-16.83-1.3-27.19-1.3h-8.61c-11.71,1.47-22.78,2.41-34.44,4.16-3.32.5-8.67,1.73-13.59,1.04-8.58-1.2-18.91-2.36-27.19-3.64-2.27-.09-4.53-.17-6.8-.26-1.06-.16-2.17-.33-3.3-.5-6.59-8.18-26.72-4.96-36.96-2.42-5.1,1.27-10.47.49-15.31,1.52-9.26,1.98-18.71-1.46-26.02,1.01-3.61,1.22-8.57-.5-12.76.51-1.38.33-4.23,1.95-6.12,1.52-1.23-.28-4.78-2.05-5.61-3.04-1.18.16-1.27.24-2.04.51-.03,27.87,2.35,59.8-1.53,85.16v14.19c0,15.26,1.36,33.17-1.53,46.13v19.77c0,18.96,2.15,41.77-1.53,58.29v60.83c-2.07,9.53-1.53,20.08-1.53,30.92v12.17c-1.81,8.34-.51,17.27-.51,26.36,0,9.93-1.02,18.31-1.02,28.89,0,35.11,0,68.1,0,101.38,0,9.92,1.46,22.48-.51,31.43-.57,2.58.48,4.14-1.02,5.58v19.53c-.14.1-.29.19-.42.29-.69-.1-1.38-.19-2.07-.29-.1.65-.2,1.3-.3,1.96.91.16,1.86.54,2.79,1.07v93.53c.28.39,2.16.68,2.55,1.01,1.12,1.78-.07,6.32,1.02,8.11v.51h.51c1.78-4.37,3.42-7.22,5.61-10.65h8.16c1.03-.41,2.75-2.66,5.61-1.52,4.91,1.95,22.62,7.92,30.1,6.08,4.52-1.11,15.11-4.3,20.92-3.04,3.13.68,7.43,1.42,10.71,1.52,3.34.1,4.4-1.05,6.12-1.52,5.27.51,10.55,1.01,15.82,1.52,4.93,1.25,10.03,3.86,14.8,5.07h5.61c8.38,2.49,15.95,4,22.96,7.6,2.25,1.16,4,.41,6.63,1.52,4.44,1.87,18.81,12.47,20.41,16.73h2.55c.84-1.21,1.37-1.61,3.06-2.03v-17.23c-.67-1.48-1.69-4.38-1.86-7.4,1.63-.11,3.22-.2,4.64-.26,1.67.16,3.33.31,5,.47,2.91,0,6.18-.29,8.93-.32,2.92.26,5.84.51,8.76.77,6.18-.05,14.03-.59,19.96-.57,2.35.32,4.69.65,7.04.97,1.82-.02,3.22-.78,4.79-.89,1.54.06,3.08.13,4.62.2,1.04-.08,2.44-.55,3.48-.63,2.24.09,4.48.18,6.72.26,8.34-.47,18.05-1.1,27.23-1.12,2.78.24,5.57.47,8.35.71,5.95-.06,14.07-.24,19.93-.35,1.67.16,3.33.31,5,.47,5.67-.08,13.7-1.56,18.95-2.26,7.32-.98,13.67-1.82,18.46-4.55.34-.4.69-.79,1.03-1.19.89-.51,1.98-.42,2.72-1.18,1.09-.71,1.49-4.22.8-5.21-1.32-1.9-3.81-5.13-4.83-7.1Z"/><path class="cls-1" d="M1497.15,77.24c-.91-.06-1.12-.32-1.19-1.43-.46-.9-.19-3.4-.2-4.71-.03-3.94.32-8.71-.25-12.28-.11,0-.22,0-.34,0-.89-.69-5.94-.14-7.06.04-.1.76-.11,1.16-.66,1.44-.78.28-1.57.55-2.35.83-.11.41-.22.82-.33,1.23-.56.07-1.12.14-1.68.21-.54.32-.57,1.43-1.33,1.65-1.16.32-1.27-1.09-1.86-1.42-.76-.43-2.3-.2-3.03-.39-4.09.02-8.18.05-12.27.07-.74-.27-1.03-1.35-1.69-1.63-2.47-.05-4.93-.11-7.4-.16-.93-.29-1.36-1.27-2.03-1.63-.45,0-.9,0-1.34,0-3.31-.91-5.4.75-7.41-2.01-1.63-.06-3.25-.12-4.88-.18-.07-.42-.04-.39-.17-.61-.77-.66-2.6-.39-3.87-.39-3.14.02-6.28.04-9.41.05-1.29,0-3.28-.28-4.03.43-.25.32-.13.38-.5.62-.48.37-1.35-.06-2.02.22-.68.28-.49,1.27-1,1.64-.73.55-1.7.26-2.35.83-.28.55-.55,1.09-.83,1.64-.37.32-.93.16-1.17.62-.05.41-.11.82-.16,1.23-.24.48-1.03.4-1.31.8-.24-.17-.48-.33-.72-.5-3.05-2.72-5.75-6.26-8.71-8.89-1.33-.77-2.66-1.54-3.99-2.31-5.07-4.82-9.91-8.77-13.61-13.64-1.19-1.57-2.7-1.87-4.17-3.57-2.49-2.86-8.93-14.63-8.55-17.65l-1.81-1.05c-1.03.32-1.55.33-2.9-.14-2.05,3.18-4.09,6.36-6.14,9.54-.07,1.55-.66,4.99-2.88,6.8-4.68,3.82-8.34,10.82-10.11,16.49-.73,2.33-3.43,5.5-4.88,6.81-3.57,3.24-8.77,14.05-9.93,17.75-1.36,4.35-5.11,7.92-7.76,12.07-.72,1.12-1.44,2.25-2.17,3.37-.17,1.58.82,4.28.74,5.82-.14,2.71-2.18,4.09-2.88,6.8-1.63,6.27-3.52,13.34-5.21,19.7-1.26,4.74-4.3,8.92-5.59,13.32-.78,1.47-1.56,2.95-2.35,4.42-.6,8.37-3.28,17.32-4.84,26.08-.48.75-.96,1.5-1.44,2.25-.64,2.44-1.81,6.04-2.52,8.55-.9,1.66-1.8,3.32-2.71,4.98-1.28,5.15-.98,10.91-2.14,16.47-.66,1.29-1.32,2.57-1.98,3.86-1.25,4.36-3.57,9.64-4.32,13.67-.9,1.4-1.81,2.81-2.71,4.21-2.23,3.47-4.37,6.55-5.05,10.17-.42,2.23-.3,5.64-.53,7.78-1.5,2.34-3.01,4.68-4.51,7.02-3.3,11.1-9.08,18.72-17.7,25.19-1.98,1.49-3.21,4.12-4.05,6.53-.56-1.98-1.29-2.12-.45-3.83.22-1.77-1.92-2.54-.42-4.13-.72-1.72-1.44-3.44-2.15-5.16.15-.32.32-.62.48-.95.33-1.72-2.1-3.83-1.77-5.33,0-.39.25-.66.48-.95-.84-1.87-1.68-3.73-2.52-5.6-.15-.9.42-1.28.44-1.67-.7-1.58-1.4-3.16-2.11-4.74-.05-.42-.1-.85-.14-1.27.07-.2.51-.3.53-.52.13-1.68-2.24-3.75-1.9-5.27.03-.16.05-.32.08-.48.13-.06.26-.11.39-.17-.42-1.24-1.25-3.08-1.74-4.3-.39-.82-.78-1.64-1.18-2.46-.05-.42-.1-.85-.14-1.27.04-.26.43-.48.41-.77-.03-.58-.72-1.61-.81-2.03-2.24-4.68-4.47-9.36-6.71-14.04-.23-.99-1.04-2.23-1.08-3.25-.02-.36.27-.75.17-1.26-.31-.66-.63-1.31-.94-1.97-.63-2.75-2.95-6.49-4.28-9.29-1.1-2.2-2.2-4.4-3.31-6.6-.31-.36-.77-.37-1.06-.59-.48-.68-.96-1.37-1.45-2.05-2.55-5.34-5.1-10.68-7.65-16.01-.35-.44-.72-1.79-1.25-2.29-.21-.2-.65-.08-.88-.22-.31-.31-.61-.63-.92-.94-.39-.82-.78-1.64-1.18-2.46-.67-1.13-1.56-2.95-2.26-4.08-.25.01-.51.02-.76.03-1.08-1.34-2.13-3.64-3.16-5.32-.34,0-.65-.02-.95-.04-.39-.49-1.18-2.4-1.8-2.79-.72-1.3-.79-.35-1.49-.84-.45-.32-.48-.93-.97-1.07-.23.05-.47.1-.7.15-.22-.07-.33-.39-.55-.51-.35-.18-.53.03-.95-.04-.67-.1-1.21-1.13-1.64-1.82-.3.03-.59.06-.89.09-.48-.44-1.05-1.94-1.56-2.3-.35-.24-1,.06-1.38-.3-.53-.49-.69-1.61-1.26-1.98-.41-.35-.68-.06-1.07-.28-.57-.33-1.18-1.67-1.56-2.3-.3.03-.59.06-.89.09-.31-.37-1.23-2.14-1.62-2.42-.4-.28-.99.04-1.44-.42-.5-.51-.7-1.62-1.26-1.98-.31-.22-.63-.17-1.01-.16-.59-.76-1.3-2-1.86-2.91-.38-.04-.76-.07-1.14-.11-.67-1.2-1.77-4.34-2.86-5.01-.43-.31-.97-.16-1.37-.6-.39-.43-.44-1.16-.83-1.42-.52-1.25-.91-2.57-2.07-2.38-.34-.42-.85-1.1-1.21-1.56-.53-1.11-1.06-2.22-1.59-3.33-.57-.66-1.38-.55-2.04-1.35-1.06-2.12-2.13-4.23-3.19-6.35-.18-.13-.56.11-.76.03-.29-.27-.57-.55-.86-.82-.69-1.34-1.38-2.67-2.07-4.01-.3-.27-.89-.02-1.2-.23-.8-1.34-1.59-2.68-2.39-4.02-.5.16-.52.11-.89.09-.31-.4-1.4-2.54-1.8-2.79-.41-.26-1.02.02-1.44-.42-.38-.39-.41-1.06-.78-1.3-.63-1.23-1.13-.52-1.8-1.16-.6-.58-.76-1.93-1.43-2.35-.31-.22-.4-.18-.82-.09-.25-.29-.6-.46-.8-.7-.8-.91-.86-2.78-1.78-3.39-.19-.13-.56.11-.76.03-.29-.27-.57-.55-.86-.82-.77-1.5-1.54-3-2.31-4.5-.33-.25-1.01-.09-1.62-.79-1.08-2.16-2.16-4.32-3.25-6.47-.3-.27-.89-.02-1.2-.23-.89-.6-1.66-2.79-2.27-3.78-.34,0-.65-.02-.95-.04-.33-.43-.99-1.85-1.5-2.17-.57-.98-1.1-.34-1.68-.91-.44-.43-.46-1.27-.89-1.55-.83-1.64-1.08-.55-1.85-1.28-.48-.78-.96-1.57-1.43-2.35-.29.06-.26.08-.45.04-1.13.01-.91-1.03-1.7-1.94-.46-.54-.82-.22-1.31-.48-.22-.25-.45-.5-.67-.75-.38.07-.77.13-1.15.2-.38-.09-.32-.55-.67-.75-.32-.18-.94.18-1.27-.05-.28-.37-.56-.75-.85-1.12-.32-.18-.93.16-1.27-.05l-.48-.68c-.32-.2-.7.09-1.08.02-.37-.24-.74-.47-1.11-.71-.66-.13-1.32.37-2.04.28-.5-.06-.64-.71-1.24-.65-.59.06-1.13.6-1.61.54-.35-.02-.28-.1-.56-.2-.78-.18-2.22.66-3.21,1.08-2.4,1.03-4.81,2.06-7.22,3.1-.98.42-2.45.86-2.85,1.52-.03.17-.03.15.05.42-.25.12-.5.23-.74.35-.04-.27-.09-.54-.13-.81-.25-.44-1.09-.33-1.34-.83-.05-.41-.11-.82-.16-1.23-.24-.46-.81-.3-1.17-.62-.28-.55-.55-1.1-.83-1.64-.65-.57-1.62-.29-2.35-.83-.51-.38-.31-1.36-1-1.64-.67-.27-1.53.15-2.02-.22-.37-.24-.25-.3-.5-.62-.75-.71-2.74-.43-4.03-.43-3.14-.02-6.28-.04-9.41-.05-1.27,0-3.1-.28-3.87.39-.13.22-.11.19-.17.61-1.63.06-3.25.12-4.88.18-2.01,2.75-4.1,1.1-7.41,2.01-.45,0-.9,0-1.34,0-.67.36-1.1,1.34-2.03,1.63-2.47.05-4.93.11-7.4.16-.66.28-.95,1.36-1.69,1.63-4.09-.02-8.18-.05-12.27-.07-.73.19-2.27-.03-3.03.39-.59.33-.7,1.74-1.86,1.42-.77-.21-.8-1.32-1.33-1.65-.56-.07-1.12-.14-1.68-.21-.11-.41-.22-.82-.33-1.23-.78-.28-1.57-.55-2.35-.83-.55-.28-.56-.68-.66-1.44-1.12-.18-6.17-.73-7.06-.04-.11,0-.22,0-.34,0-.57,3.57-.22,8.34-.25,12.28,0,1.31.27,3.81-.2,4.71-.07,1.1-.27,1.37-1.19,1.43-.11.72-.18,1.79-.52,2.25-.02,1.27-.11,2.95.14,3.89.39-.04.47-.04.67-.2.28,0,.56,0,.84,0,.54,3.8-.23,9.04-.25,13.51-.06,8.9.23,17.45.17,26-.02,3.62-.05,7.23-.07,10.85,0,1.22-.27,3.47.14,4.3.02,1.43.56,1.79,1.16,2.46,0,1.63-.35,2.1-1.19,2.65.05,1.71.09,3.41.14,5.12.17.49.69,1.33.83,2.05.26,1.3-.04,3.24.14,4.3-.04,14.4-.07,28.8-.11,43.2-.04,5.59-.07,11.19-.11,16.79-.02,2.81-.31,6.35.11,8.8-.02,3.41-.04,6.82-.07,10.24.42,2.43.56,4.74.96,6.97,1.12,6.16-.76,14.81.21,20.47-.04,6-.08,12.01-.11,18.01-.06,10.19.01,20.85-.03,30.71-.02,4.14-.56,9.35.08,13.1,0,.89-.01,1.77-.02,2.66.25,1.16.73,2.46.98,3.9.02,5.05.05,10.1.07,15.15.3,1.77.14,4.44.13,6.55-.03,4.16-.05,8.33-.08,12.49-.05,7.3-.09,14.6-.14,21.9-.01,1.99-.47,7.44.11,8.8.24.55.98.63,1.17,1.44.37,1.59-.54,2.79-.7,3.68,0,0,.71,5.37.8,5.94-.06,8.67-.11,17.33-.17,26-.1,16.17-.21,32.35-.31,48.52-.06,9.4-.45,19.97,1,27.44.29,1.5-.08,3.66.14,4.91-.03,13.17-.06,26.34-.08,39.51.07,6.14.15,12.28.22,18.43.14.61.69,1.21.83,1.85.31,1.38.1,3.08.31,4.3,0,1.57-.02,3.14-.03,4.71.32,1.9.14,4.72.12,6.96-.03,4.37-.06,8.73-.08,13.1-.06,8.73-.11,17.47-.17,26.2-.01,2-.51,8.59.11,9.83.03,1.21.38,1.41,1,1.85.04,1.02.04,1.03-.01,2.05-.35.36-.52.56-1.01.81-.12,4.89.32,9.2,1.09,13.72.01,7.16.02,14.33.03,21.5-.02,3.69-.48,8.36.09,11.67,0,.82-.01,1.64-.02,2.46.22.53.94.7,1.17,1.44.38,1.24.26,2.17.82,3.08.92.82,6.94.65,8.57.66.81,0,2.17.22,2.69-.19.97.03,1.64-.04,2.19-.4,0-.27,0-.55,0-.82,1.09-.08,3.76.46,5.04-.18.63-.31.86-1.37,1.52-1.63,1.27-.5,2.96.49,4.04-.18.23-.14.17-.58.34-.82.31-.44,1.38-.86,1.86-1.01,1.01,0,2.02.01,3.03.02.59-.26.86-1.26,1.36-1.63,1.01-.13,2.02-.26,3.03-.39.45-1.22,1.11-1.47,2.2-1.83.45,0,.9,0,1.34,0,.57-.32.87-1.55,1.52-1.83.56,0,1.12,0,1.68,0,.45-.61.9-1.22,1.36-1.83.5,0,1.01,0,1.51,0,.66-.29.96-1.46,1.52-1.83.62-.06,1.23-.13,1.85-.19.45-.25.78-1.3,1.19-1.63.55-.44,1.47.12,2.19-.19.62-.27.56-1.23,1.02-1.63,1.01-.13,2.02-.26,3.03-.39.36-2.08,2-.9,3.04-2.03.47-.51.28-1.15,1.02-1.43,1.09-.4,2.68.41,3.53-.18,1.34.04,1.58-.43,2.03-1.42.69-.06,1.61-.25,2.19-.4,1.57,0,3.14.02,4.71.03.44-.2.5-.95.85-1.22.34-.27,1.35-.51,1.68-.6,1.34,0,2.69.02,4.03.02.8-.29,1.29-1.49,2.2-1.83.95-.06,1.91-.13,2.86-.19.68-.49.07-1.18,1.69-1.63.18-1.09.35-2.18.52-3.27.16-.37.87-.48,1.01-.81.07-1.5.13-3,.2-4.5.03-4.16.05-8.33.08-12.49.91-4.88.67-9.08,1.6-14.12.09-6,.19-12.01.28-18.01.31-1.58,1.08-2.49,1.37-3.88.32-1.55.3-9.79-.1-10.85-.13-.34-.71-.61-.83-1.03-.35-1.15-.62-5.55-.29-7.17.26-1.29,1.1-1.71,1.36-2.65.44-1.63-.46-4.22.2-5.53.06-8.8.11-17.61.17-26.41.02-2.52.03-5.05.05-7.57.18-.46.88-.67,1.35-.81.39-2.39-.27-5.77.22-8.39.12-.63.23-1.92.52-2.45.18-.33.71-.41.85-.81.16-7.03.31-14.06.47-21.08.25-1.05,1.15-1.56,1.36-2.24,0-.75,0-1.5.01-2.25.03-2.81-.14-6.24,1.56-7.16.04-2.84.14-6.43,1.06-8.18.17,0,.34,0,.5,0,.04-1.89-.23-6.84.56-8.19.25-.75.56-.59,1.02-1.02.7-1.34-.05-3.58.37-5.32.24-.98,1.1-1.11,1.36-1.83.07-2.05.14-4.09.21-6.14.27-1.14,1.27-1.44,1.53-2.45.57-2.19-.48-4.89.54-6.34.23-.56.23-.51.84-.61.43-2.87-.27-6.34,1.73-7.36,0-1.51-.07-4.57.54-5.52.24-.57.48-.46.85-.81.51-.87.05-2.92.53-3.89.09-1.2.44-1.29,1.19-1.63.5-3.23-.29-3.84,1.55-5.72,1.17-2.3-.74-4.64,1.72-5.93.13-2.8.26-5.59.39-8.39.33-.36.67-.66,1.02-1.02,1.26-2.18-.25-6.52.89-8.39.21-.53.61-.75,1.02-1.02.08-3.07.15-6.14.23-9.21.31-1.33,1.13-1.51,1.36-2.04.07-2.59.15-5.19.22-7.78.17-.61.34-1.23.52-1.84.18-.23.71-.11.84-.4,1.03-2.23-.45-6.5.73-8.39.11-.2.23-.41.34-.61.17,0,.34,0,.5,0,.2-1.96.28-4.99.38-6.96,0-1.36.02-2.73.03-4.09.17-.61.34-1.23.52-1.84.18-.33.71-.41.85-.81.27-.81.07-2.65.19-3.27.05-7.78.1-15.56.15-23.34.28-1.5.05-3.69.54-5.12.17-.51.69-.87.85-1.63,0-1.09.01-2.18.02-3.28.77-4.17.24-10.7.27-15.35-.03-3.68-.07-7.37-.1-11.06-.14-.69-.63-.97-.83-1.44-.16-1.23-.32-2.46-.48-3.69.06-8.87.11-17.74.17-26.61-.14-.82.17-2.9-.14-3.89-.13-.4-.66-.49-.84-.82-.16-.61-.33-1.23-.49-1.85,0-1.36.02-2.73.03-4.09-.07-.98-.1-2.23-.14-3.49.85,1.78,1.7,3.56,2.55,5.34,2.1,4.39,4.2,8.79,6.3,13.18.57,1.2,1.82,4.62,2.66,5.24.34.25.93.05,1.31.48.75.83.4,1.85.54,2.44,0,0,2.11,2.99,2.35,3.3,2.49,5.21,4.98,10.43,7.47,15.65,4.65,9.73,9.3,19.47,13.94,29.2,2.7,5.66,5.49,12.12,8.79,16.12.66.8,1.01,2.22,1.54,2.9,2.9,5.98,5.79,11.97,8.69,17.95-.42,1.29-.76,2.59-.94,3.88-1.46,10.33,5.69,18.72-6.1,28.81-2.31,1.97-3.09,4.94-5.78,5.9-1.37,2.24-2.34,1.93-4.52,1.62-.57,7.92,16.74,15.23,25.57,18.25,4.08,1.4,7.61,4.03,11.42,5.45,7.18,2.67,12.61,8.32,18.59,10.05,1.01,2.05,2.01,4.11,3.02,6.16,1.06,2.22,2.08,5.17,3.48,6.97.24.49.47.99.71,1.48.32.24.92.11,1.31.48.66.61.83,1.22,1.53,1.57.95.19,5.5-1.91,6.75-2.45.62-.27,1.72-.59,2-1.01.75-.3,1.24-.57,1.56-.97-.08-.16-.16-.33-.24-.49.81-.41,3.01-.97,3.81-1.78.39-.39.26-1.11.69-1.48.83-.72,2.4-.69,3.03-1.45.13-.16-.04-.41.02-.6.11-.37.8-.97,1.12-1.22.77-.33,1.55-.66,2.32-1,.38-.35.29-1.04.56-1.43.73-.41,1.47-.83,2.2-1.24-.01-.88.42-1.25,1.15-1.83.34-.15.69-.29,1.03-.44.34-.38.21-1.22.63-1.61.43-.18.86-.37,1.29-.55.17-.52.33-1.03.5-1.55.39-.17.77-.33,1.16-.5.42-.39.31-1.19.63-1.61.45-.24.91-.49,1.36-.73.27-.3.21-1.04.43-1.37.29-.45,1.16-.41,1.62-.84.4-.37.07-.93.3-1.32.73-.41,1.47-.83,2.2-1.24-.33-1.37,1.27-1.21,1.73-2.23.21-.46-.12-.78.36-1.19.71-.6,2.17-.64,2.65-1.28,1.03-.42,1.08-.78,1.13-1.53.51-.27,1.16-.68,1.56-.96,1.2-.52,2.41-1.03,3.61-1.55.28-.26.1-.73.29-1.02.18-.27.89-.75,1.11-.92,1.03-.44,2.06-.88,3.09-1.33.52-.44.55-1.32,1.15-1.83.71-.35,1.42-.71,2.13-1.06.38-.52-.29-.73.82-1.54-.18-.71-.37-1.42-.55-2.14.01-.27.52-.58.54-.82-.39-.92-.78-1.84-1.17-2.77-1.2-2.5-2.39-5.01-3.59-7.51-.56-2.46-1.51-4.47-2.27-6.76,4.36-7.16,8.87-14.76,14.18-19.53,2.35-3.65,4.69-7.3,7.04-10.94,6.76-10.5,13.35-24.01,21.85-31.64,7.22-11.22,14.45-22.45,21.67-33.68,2.01-1.83,3.77-3.95,5.41-6.23.01,1.84.02,3.68.04,5.52-.16,1.23-.32,2.46-.48,3.69-.2.46-.69.75-.83,1.44-.03,3.68-.07,7.37-.1,11.06.03,4.66-.5,11.18.27,15.35,0,1.09.01,2.18.02,3.28.16.76.68,1.12.85,1.63.49,1.43.26,3.61.54,5.12.05,7.78.1,15.56.15,23.34.12.63-.08,2.46.19,3.27.13.4.67.49.85.81.17.61.34,1.23.52,1.84,0,1.36.02,2.73.03,4.09.1,1.97.18,4.99.38,6.96.17,0,.34,0,.5,0,.11.2.23.41.34.61,1.17,1.89-.3,6.16.73,8.39.13.29.66.17.84.4.17.61.34,1.23.52,1.84.07,2.59.15,5.19.22,7.78.23.53,1.05.71,1.36,2.04.08,3.07.15,6.14.23,9.21.4.26.8.49,1.02,1.02,1.15,1.87-.36,6.21.89,8.39.35.36.69.66,1.01,1.02.13,2.8.26,5.59.39,8.39,2.46,1.28.55,3.62,1.72,5.93,1.84,1.89,1.05,2.49,1.55,5.72.74.34,1.1.43,1.19,1.63.48.97.02,3.02.53,3.89.37.36.61.24.85.81.61.95.54,4.01.54,5.52,2,1.02,1.3,4.49,1.73,7.36.61.09.61.05.84.61,1.03,1.45-.02,4.16.54,6.34.26,1.01,1.26,1.31,1.53,2.45.07,2.05.14,4.09.21,6.14.25.73,1.12.85,1.36,1.83.42,1.74-.33,3.98.37,5.32.46.43.76.27,1.02,1.02.79,1.35.52,6.3.56,8.19.17,0,.34,0,.5,0,.92,1.76,1.02,5.34,1.06,8.18,1.69.92,1.53,4.34,1.56,7.16,0,.75,0,1.5.01,2.25.21.68,1.11,1.19,1.36,2.24.16,7.03.31,14.06.47,21.08.13.4.67.49.85.81.29.53.4,1.83.52,2.45.5,2.62-.17,6.01.22,8.39.47.14,1.17.35,1.35.81.02,2.52.03,5.05.05,7.57.06,8.8.11,17.61.17,26.41.67,1.31-.24,3.9.2,5.53.26.94,1.1,1.36,1.36,2.65.33,1.62.06,6.02-.29,7.17-.13.42-.7.69-.83,1.03-.4,1.06-.42,9.3-.1,10.85.29,1.39,1.06,2.3,1.37,3.88.09,6,.19,12.01.28,18.01.93,5.04.69,9.24,1.6,14.12.03,4.16.05,8.33.08,12.49.07,1.5.13,3,.2,4.5.15.33.85.44,1.01.81.17,1.09.35,2.18.53,3.27,1.62.45,1.01,1.14,1.69,1.63.95.06,1.91.13,2.86.19.91.34,1.4,1.54,2.2,1.83,1.34,0,2.69-.02,4.03-.02.33.1,1.34.34,1.68.6.35.28.4,1.03.85,1.22,1.57,0,3.14-.02,4.71-.03.58.15,1.5.34,2.19.4.45.99.69,1.46,2.03,1.42.85.6,2.45-.22,3.53.18.74.27.55.92,1.02,1.43,1.03,1.13,2.68-.05,3.04,2.03,1.01.13,2.02.26,3.03.39.46.4.4,1.36,1.02,1.63.72.32,1.64-.25,2.19.19.41.33.74,1.38,1.19,1.63.62.06,1.23.13,1.85.19.57.38.86,1.55,1.52,1.83.5,0,1.01,0,1.51,0,.45.61.9,1.22,1.36,1.83.56,0,1.12,0,1.68,0,.65.28.95,1.52,1.52,1.83.45,0,.9,0,1.34,0,1.08.36,1.75.61,2.2,1.83,1.01.13,2.02.26,3.03.39.49.37.76,1.37,1.36,1.63,1.01,0,2.02-.01,3.03-.02.48.16,1.54.57,1.86,1.01.17.24.11.67.34.82,1.08.67,2.76-.32,4.04.18.66.26.89,1.32,1.52,1.63,1.29.63,3.95.1,5.04.18,0,.27,0,.55,0,.82.55.35,1.22.42,2.19.4.52.41,1.88.19,2.69.19,1.63,0,7.65.16,8.57-.66.56-.9.44-1.84.82-3.08.23-.74.95-.91,1.17-1.44,0-.82-.01-1.64-.02-2.46.57-3.31.12-7.98.09-11.67.01-7.16.02-14.33.03-21.5.77-4.53,1.21-8.83,1.09-13.72-.49-.25-.67-.45-1.01-.81-.05-1.02-.05-1.02-.01-2.05.61-.44.97-.64,1-1.85.61-1.23.12-7.83.11-9.83-.06-8.73-.11-17.47-.17-26.2-.03-4.37-.06-8.73-.08-13.1-.01-2.24-.2-5.06.12-6.96,0-1.57-.02-3.14-.03-4.71.21-1.22,0-2.92.31-4.3.14-.64.69-1.24.83-1.85.07-6.14.15-12.28.22-18.43-.03-13.17-.06-26.34-.08-39.51.21-1.26-.15-3.42.14-4.91,1.45-7.47,1.06-18.03,1-27.44-.1-16.17-.21-32.35-.31-48.52-.06-8.67-.11-17.33-.17-26,.1-.57.8-5.94.8-5.94-.16-.89-1.07-2.09-.7-3.68.19-.81.93-.89,1.17-1.44.58-1.36.12-6.81.11-8.8-.05-7.3-.09-14.6-.14-21.9-.03-4.16-.05-8.33-.08-12.49-.01-2.11-.18-4.78.13-6.55.02-5.05.05-10.1.07-15.15.25-1.43.73-2.73.98-3.9,0-.89-.01-1.77-.02-2.66.64-3.75.1-8.96.08-13.1-.04-9.86.04-20.52-.03-30.71-.04-6-.08-12.01-.11-18.01.97-5.66-.92-14.32.21-20.47.41-2.22.55-4.54.96-6.97-.02-3.41-.04-6.82-.07-10.24.42-2.45.13-5.99.11-8.8-.04-5.59-.07-11.19-.11-16.79-.04-14.4-.07-28.8-.11-43.2.18-1.06-.11-3,.14-4.3.14-.72.66-1.56.83-2.05.05-1.71.09-3.41.14-5.12-.84-.56-1.19-1.02-1.19-2.65.6-.68,1.15-1.04,1.16-2.46.42-.83.15-3.08.14-4.3-.02-3.62-.05-7.23-.07-10.85-.05-8.55.23-17.1.17-26-.03-4.47-.79-9.71-.25-13.51.28,0,.56,0,.84,0,.2.16.28.16.67.2.26-.95.16-2.62.14-3.89-.34-.46-.41-1.53-.52-2.25ZM1254.84,276.12c-.13.38-.24.74-.35,1.1-.16-.54,0-.77.35-1.1Z"/><path class="cls-1" d="M2328.26,41.52v-.52c-.18,0-.36,0-.55,0-1.97,4.48-3.76,7.41-6.17,10.91-2.94-.03-5.88-.05-8.82-.08-1.12.42-3,2.71-6.08,1.51-5.28-2.06-24.35-8.37-32.45-6.55-4.9,1.1-16.36,4.29-22.62,2.93-3.38-.73-8.01-1.53-11.56-1.67-3.61-.14-4.77,1.04-6.63,1.51-5.69-.57-11.38-1.15-17.07-1.72-5.31-1.34-10.79-4.07-15.93-5.36-2.02-.02-4.04-.04-6.06-.05-9.03-2.65-17.19-4.28-24.72-8.05-2.42-1.21-4.31-.46-7.15-1.63-4.77-1.97-20.19-13.02-21.87-17.43-.92,0-1.84-.02-2.75-.02-.92,1.24-1.5,1.65-3.33,2.06-.06,5.92-.12,11.84-.17,17.76,1,2.17,2.75,7.31,1.54,11.5-2.56,8.83-1.74,21.21.25,30.3.82,3.73.01,10.15-.68,13.05-1.71,7.18.04,25.94,1.34,31.87,1.53,6.98-.15,14.75-.22,22.46-.02,2.09-.04,4.18-.06,6.27.92,2.29,3.9,5.19,4.89,7.36,1.74,3.81.43,7.27,1.54,11.5,2.56,9.81,5.4,20.9,7.96,30.89,1.91,7.43,1.44,15.48,3.08,22.49.16,2.61.32,5.23.47,7.84,5.19,11.87,8.45,26.14,12.84,39.29-.01,1.39-.03,2.79-.04,4.18,1,3.82,2.2,9.63,3.17,13.61.15,2.96.31,5.92.46,8.88,2.17,8.01,6.53,15.63,9.13,24.11.16,2.26.32,4.53.48,6.79,1.65,6.92,2.76,15.9,4.74,21.98-.03,2.61-.05,5.22-.08,7.83,0,.75-.02,1.49-.03,2.22-1.65-3.86-3.45-7.76-5.18-11.74-1.7-3.92-3.4-7.84-5.11-11.75-1.42-8.87-6.66-16.91-10.47-25.69-4.17-9.59-6.51-18.15-10.95-28.37-14.74-33.92-28.58-65.79-42.54-97.94-4.16-9.58-11.12-21.06-12.6-30.59-.43-2.74-2.3-3.78-1.17-5.85-12.12-27.91-24.25-55.83-36.38-83.74-4.11-9.47-8.23-18.94-12.34-28.4-.48-.25-2.77.31-3.36.17-.11-.07-.22-.15-.32-.24v-.43c-.09-.12-.35-.23-.67-.34-1.01-1.49-1.63-3.92-2.64-5.4.01-1.45-.02-2.84-.55-3.66v-.52h-.55c-1.92,4.5-3.69,7.44-6.06,10.97h-8.82c-1.11.43-2.97,2.74-6.06,1.57-5.3-2.01-24.43-8.16-32.51-6.27-4.89,1.14-16.32,4.43-22.59,3.13-3.38-.7-8.03-1.46-11.57-1.57-3.61-.1-4.75,1.08-6.61,1.57-5.69-.52-11.39-1.04-17.08-1.57-5.32-1.29-10.83-3.98-15.98-5.22h-6.06c-9.05-2.57-17.23-4.12-24.8-7.83-2.43-1.19-4.32-.42-7.16-1.57-4.79-1.93-20.31-12.84-22.04-17.24h-2.76c-.91,1.25-1.48,1.66-3.31,2.09v17.76c1.02,2.16,2.83,7.29,1.65,11.49-2.47,8.85-1.53,21.22.55,30.29.85,3.72.11,10.15-.55,13.06-.68,2.99-.75,7.98-.49,13.21-7.56-1.38-15.73-3.51-17.87-5.52-.98.38-1.96.76-2.94,1.15-.46,1.55-.9,2.17-2.67,3.33,2.41,5.55,4.82,11.1,7.23,16.65,1.97,1.6,5.98,5.66,6.44,10.09.97,9.33,7.01,20.54,12.93,28.17,2.43,3.14,4.25,9.47,4.73,12.47.41,2.59,1.85,6.3,3.72,10.26,1.83,6.82,3.7,13.84,5.45,20.39,1.98,7.42,1.59,15.47,3.31,22.46.18,2.61.37,5.22.55,7.83,5.31,11.82,8.71,26.07,13.22,39.17v4.18c1.04,3.82,2.3,9.61,3.31,13.58.18,2.96.37,5.92.55,8.88,2.25,7.99,6.68,15.57,9.37,24.03.18,2.26.37,4.53.55,6.79,1.72,6.9,2.92,15.87,4.96,21.94v7.83c0,6.46-.18,12.31,1.65,17.76,1.13,3.35,3.69,7.88,4.96,10.97v13.06c4.25,17.65,3.28,32.52-1.65,48.05-1.85,5.81.67,14.21,1.65,18.28v7.83c1.44,6.22,1.41,11.29,0,17.24-1.73,7.32,1.84,13.38,3.31,17.76v6.27c.71,2.42,2.53,6.32,3.31,8.88,2.04,6.75,1.41,12.67,3.86,18.8.62,1.54,2.78,3.24,3.31,4.7v13.58c-.93,3.2-3.53,6.57-4.96,9.4-.83,1.64-1.78,4.01-2.2,5.22v4.18c-1.42,3.07-5.2,6.55-6.61,9.92-1.62,3.87-2.32,9.18-3.31,13.06-1.28,5.04,2.21,9.26,3.31,12.54v3.66c1.96,7.46,2.33,16.04,4.96,22.98,5.74,15.17,19.64,20.94,13.78,43.87-1.15,4.48.1,9.13-2.2,12.54.08,4.11-1.21,4.44-3.86,5.75,5.01,11.18,29.4,7.52,41.33,4.7,5.51-1.3,11.3-.5,16.53-1.57,10.01-2.04,20.2,1.51,28.1-1.04,3.9-1.26,9.25.52,13.78-.52,1.49-.34,4.57-2.01,6.61-1.57,1.33.29,5.16,2.11,6.06,3.13,1.27-.17,1.37-.24,2.2-.52.04-28.71-2.53-61.62,1.65-87.75v-14.62c0-15.72-1.46-34.17,1.65-47.53v-20.37c0-19.54-2.32-43.03,1.65-60.06v-51.86c1.57,3.62,3.14,7.24,4.72,10.86,11.72,14.78,16.74,29.13,17.81,45.74.4,6.22,6.5,13.04,9.21,16.45,1.06,2.45,2.13,4.9,3.19,7.35,4.07,5.24,6.1,10,7.02,16.16,1.14,7.58,7.42,11.78,10.76,15.27.85,1.96,1.7,3.92,2.55,5.88,1.74,1.98,5.27,4.87,7.14,6.95,4.92,5.48,6.66,11.3,11.77,16.02,1.28,1.19,4.28,1.88,5.44,3.03,1.84,4.24,3.69,8.49,5.53,12.73.31,3.39-1.09,7.63-1.46,10.88-.21,1.88-.27,4.5-.22,5.81.57,1.31,1.13,2.61,1.7,3.92-.26,3.47-2.88,8.3-3.01,12.06-.15,4.31,1.27,9.57,1.79,13.62.68,5.26,6.13,7.76,8.63,10.38.5,1.14.99,2.29,1.49,3.43,5.13,6.18,9.02,14.07,14.65,19.48,12.3,11.83,29.46,11.46,32.55,35.4.6,4.68,3.82,8.52,2.76,12.67,1.76,3.82.52,4.67-1.77,6.99,5.04,4.28,13.87,2.85,22.86-.58-.34,2.49-1.6,2.9-3.82,3.97,4.9,11.23,29.32,7.78,41.28,5.07,5.52-1.26,11.31-.4,16.55-1.42,10.02-1.95,20.19,1.69,28.11-.8,3.91-1.22,9.25.6,13.78-.4,1.5-.33,4.59-1.97,6.63-1.51,1.33.3,5.14,2.15,6.03,3.19,1.27-.16,1.37-.23,2.21-.5.32-28.71-1.93-61.64,2.52-87.73.05-4.87.1-9.75.14-14.62.16-15.72-1.13-34.19,2.12-47.51.07-6.79.13-13.58.2-20.37.19-19.54-1.9-43.05,2.24-60.05.21-20.89.41-41.78.62-62.67,2.33-9.8,1.86-20.67,1.97-31.84.04-4.18.08-8.36.12-12.53,2.04-8.58.73-17.79.82-27.15.1-10.23,1.29-18.86,1.4-29.76.36-36.18.69-70.16,1.03-104.46.1-10.22-1.35-23.18.87-32.38.64-2.65-.48-4.27,1.16-5.74.29-29.77.59-59.54.88-89.31.1-10.1.2-20.2.3-30.29-.29-.4-2.33-.72-2.74-1.07-1.19-1.84.14-6.51-1.02-8.37Z"/></svg>